<svg width="48" height="46" viewBox="0 0 48 46" fill="none" xmlns="http://www.w3.org/2000/svg">
<path fill-rule="evenodd" clip-rule="evenodd" d="M6.08 2.22959C3.62113 2.22959 1.62783 4.1087 1.62783 6.42669V40.2134C1.62783 42.4463 3.47757 44.272 5.81135 44.4029L33.7678 18.0482C33.893 17.9301 34.0629 17.8638 34.24 17.8638C34.4171 17.8638 34.587 17.9301 34.7122 18.0482L46.3722 29.0401V6.42669C46.3722 4.1087 44.3789 2.22959 41.92 2.22959H6.08ZM47.7078 30.5588V6.42669C47.7078 3.4133 45.1165 0.970459 41.92 0.970459H6.08C2.88347 0.970459 0.292175 3.4133 0.292175 6.42669V40.2134C0.292175 43.2268 2.88347 45.6696 6.08 45.6696H41.92C45.1165 45.6696 47.7078 43.2268 47.7078 40.2134V30.5613C47.7078 30.5604 47.7078 30.5596 47.7078 30.5588ZM46.3722 30.8208L34.24 19.3837L7.69228 44.4105H41.92C44.3789 44.4105 46.3722 42.5314 46.3722 40.2134V30.8208ZM15.04 11.8829C13.2881 11.8829 11.8678 13.2218 11.8678 14.8734C11.8678 16.5249 13.2881 17.8638 15.04 17.8638C16.7919 17.8638 18.2122 16.5249 18.2122 14.8734C18.2122 13.2218 16.7919 11.8829 15.04 11.8829ZM10.5322 14.8734C10.5322 12.5264 12.5504 10.6238 15.04 10.6238C17.5296 10.6238 19.5478 12.5264 19.5478 14.8734C19.5478 17.2203 17.5296 19.1229 15.04 19.1229C12.5504 19.1229 10.5322 17.2203 10.5322 14.8734Z" fill="#111827"/>
</svg>
